<svg width="452" height="80" viewBox="0 0 452 80" fill="none" xmlns="http://www.w3.org/2000/svg">
<g clip-path="url(#clip0_13124_165973)">
<g opacity="0.5">
<g clip-path="url(#clip1_13124_165973)">
<g filter="url(#filter0_d_13124_165973)">
<path d="M0 8C0 3.58172 3.58172 0 8 0H444C448.418 0 452 3.58172 452 8V42H0V8Z" fill="#202124"/>
</g>
<path fill-rule="evenodd" clip-rule="evenodd" d="M14 42C15.3846 41.0588 18.6154 40.5882 20 34C20 34 20 42 20 42H14Z" fill="#35363A"/>
<path d="M20 16C20 11.5817 23.5817 8 28 8H162.278C166.697 8 170.278 11.5817 170.278 16V42H20V16Z" fill="#35363A"/>
<rect x="28" y="17" width="16" height="16" rx="8" fill="#A7A7A7"/>
<rect x="53" y="20" width="82.2783" height="10" rx="5" fill="#A7A7A7"/>
<path fill-rule="evenodd" clip-rule="evenodd" d="M156.862 21.4221C156.64 21.2002 156.282 21.2002 156.06 21.4221L153.278 24.198L150.497 21.4164C150.275 21.1945 149.917 21.1945 149.695 21.4164C149.473 21.6382 149.473 21.9966 149.695 22.2184L152.476 25L149.695 27.7816C149.473 28.0034 149.473 28.3618 149.695 28.5836C149.917 28.8055 150.275 28.8055 150.497 28.5836L153.278 25.802L156.06 28.5836C156.282 28.8055 156.64 28.8055 156.862 28.5836C157.084 28.3618 157.084 28.0034 156.862 27.7816L154.08 25L156.862 22.2184C157.078 22.0023 157.078 21.6382 156.862 21.4221Z" fill="white"/>
<path fill-rule="evenodd" clip-rule="evenodd" d="M176.278 42C174.894 41.0588 171.663 40.5882 170.278 34C170.278 34 170.278 42 170.278 42H176.278Z" fill="#35363A"/>
<path fill-rule="evenodd" clip-rule="evenodd" d="M199.992 25.9523H195.23V30.7142C195.23 31.238 194.802 31.6666 194.278 31.6666C193.754 31.6666 193.326 31.238 193.326 30.7142V25.9523H188.564C188.04 25.9523 187.611 25.5237 187.611 24.9999C187.611 24.4761 188.04 24.0475 188.564 24.0475H193.326V19.2856C193.326 18.7618 193.754 18.3333 194.278 18.3333C194.802 18.3333 195.23 18.7618 195.23 19.2856V24.0475H199.992C200.516 24.0475 200.945 24.4761 200.945 24.9999C200.945 25.5237 200.516 25.9523 199.992 25.9523Z" fill="#BDC1C6"/>
</g>
</g>
<g clip-path="url(#clip2_13124_165973)">
<rect y="42" width="452" height="38" fill="#35363A"/>
<g opacity="0.5" clip-path="url(#clip3_13124_165973)">
<path fill-rule="evenodd" clip-rule="evenodd" d="M113 55.0099C113.183 54.9846 113.375 55.0356 113.523 55.1691L118.789 59.9357C119.053 60.1743 119.074 60.581 118.837 60.8459C118.598 61.1125 118.187 61.134 117.922 60.8937L117.496 60.508V66.0002C117.496 66.552 117.048 66.9998 116.496 67.0002H109.475C108.923 67.0002 108.475 66.5522 108.475 66.0002V60.5343L108.078 60.8937C107.813 61.1337 107.403 61.1122 107.164 60.8459C106.927 60.5811 106.948 60.1744 107.211 59.9357L112.479 55.1691C112.626 55.0357 112.817 54.9848 113 55.0099ZM109.764 59.3683V65.7043H116.207V59.341L113 56.4386L109.764 59.3683Z" fill="white"/>
<path fill-rule="evenodd" clip-rule="evenodd" d="M87.9979 59.3312V55.8045C87.9979 55.5045 87.6379 55.3579 87.4312 55.5712L86.2446 56.7579C85.0379 55.5512 83.3179 54.8579 81.4379 55.0245C78.6446 55.2779 76.3446 57.5245 76.0379 60.3179C75.6379 63.9312 78.4579 66.9979 81.9979 66.9979C85.0579 66.9979 87.5846 64.7046 87.9512 61.7446C87.9979 61.3446 87.6846 60.9979 87.2846 60.9979C86.9512 60.9979 86.6712 61.2446 86.6312 61.5712C86.3446 63.8979 84.3379 65.6979 81.9312 65.6645C79.4579 65.6312 77.3712 63.5445 77.3312 61.0645C77.2912 58.4646 79.4046 56.3312 81.9979 56.3312C83.2846 56.3312 84.4512 56.8579 85.2979 57.6979L83.9046 59.0912C83.6912 59.3045 83.8379 59.6645 84.1379 59.6645H87.6646C87.8512 59.6645 87.9979 59.5179 87.9979 59.3312Z" fill="white"/>
<path fill-rule="evenodd" clip-rule="evenodd" d="M45.7701 61.617H54.3721L50.614 65.3751C50.3137 65.6754 50.3137 66.1683 50.614 66.4686C50.9143 66.769 51.3995 66.769 51.6998 66.4686L56.7747 61.3937C57.0751 61.0934 57.0751 60.6082 56.7747 60.3079L51.7075 55.2253C51.4072 54.9249 50.922 54.9249 50.6217 55.2253C50.3214 55.5256 50.3214 56.0107 50.6217 56.3111L54.3721 60.0768H45.7701C45.3465 60.0768 45 60.4234 45 60.8469C45 61.2705 45.3465 61.617 45.7701 61.617Z" fill="#86888A"/>
<path fill-rule="evenodd" clip-rule="evenodd" d="M25.2299 60.0768H16.6279L20.386 56.3188C20.6863 56.0185 20.6863 55.5256 20.386 55.2253C20.0857 54.9249 19.6005 54.9249 19.3002 55.2253L14.2253 60.3002C13.9249 60.6005 13.9249 61.0857 14.2253 61.386L19.3002 66.4609C19.6005 66.7613 20.0857 66.7613 20.386 66.4609C20.6863 66.1606 20.6863 65.6754 20.386 65.3751L16.6279 61.617H25.2299C25.6535 61.617 26 61.2705 26 60.8469C26 60.4234 25.6535 60.0768 25.2299 60.0768Z" fill="white"/>
</g>
<g opacity="0.5" clip-path="url(#clip4_13124_165973)">
<rect x="164" y="47" width="176" height="28" rx="14" fill="#202124"/>
<path fill-rule="evenodd" clip-rule="evenodd" d="M183 59H182.5V58C182.5 56.62 181.38 55.5 180 55.5C178.62 55.5 177.5 56.62 177.5 58V59H177C176.45 59 176 59.45 176 60V65C176 65.55 176.45 66 177 66H183C183.55 66 184 65.55 184 65V60C184 59.45 183.55 59 183 59ZM178.5 59V58C178.5 57.17 179.17 56.5 180 56.5C180.83 56.5 181.5 57.17 181.5 58V59H178.5Z" fill="#EAEAEA"/>
<rect x="189" y="56" width="122" height="10" rx="5" fill="#2B2C2F"/>
<path fill-rule="evenodd" clip-rule="evenodd" d="M327.362 58.8401L323.969 58.5456L322.644 55.4259C322.406 54.858 321.592 54.858 321.354 55.4259L320.029 58.5526L316.643 58.8401C316.026 58.8892 315.774 59.6603 316.243 60.0669L318.816 62.2963L318.045 65.6053C317.905 66.2083 318.557 66.685 319.09 66.3625L321.999 64.6098L324.908 66.3695C325.441 66.692 326.093 66.2153 325.953 65.6124L325.182 62.2963L327.755 60.0669C328.224 59.6603 327.979 58.8892 327.362 58.8401ZM321.999 63.2988L319.363 64.8903L320.064 61.8897L317.737 59.8706L320.807 59.6042L321.999 56.7789L323.198 59.6112L326.268 59.8777L323.941 61.8967L324.642 64.8973L321.999 63.2988Z" fill="#5F6368"/>
</g>
<g clip-path="url(#clip5_13124_165973)">
<rect x="383" y="47" width="28" height="28" rx="14" fill="#202124"/>
<path d="M401.872 66.7517H395.927V67.3222H401.872V66.7517Z" fill="#BADE5B"/>
<path d="M401.871 66.9797H392.129V67.6668H401.871V66.9797Z" fill="#BADE5B"/>
<path d="M401.872 65.7173H395.927V66.2878H401.872V65.7173Z" fill="#BADE5B"/>
<path d="M401.871 65.9456H392.129V66.6326H401.871V65.9456Z" fill="#BADE5B"/>
<path d="M401.872 64.6829H395.927V65.2533H401.872V64.6829Z" fill="#BADE5B"/>
<path d="M401.871 64.908H392.129V65.595H401.871V64.908Z" fill="#BADE5B"/>
<path d="M401.872 63.6487H395.927V64.2191H401.872V63.6487Z" fill="#BADE5B"/>
<path d="M401.871 63.8735H392.129V64.5606H401.871V63.8735Z" fill="#BADE5B"/>
<path d="M401.872 62.6111H395.927V63.1815H401.872V62.6111Z" fill="#BADE5B"/>
<path d="M401.871 62.8391H392.129V63.5261H401.871V62.8391Z" fill="#BADE5B"/>
<path d="M401.872 61.5767H395.927V62.1471H401.872V61.5767Z" fill="#BADE5B"/>
<path d="M401.871 61.8049H392.129V62.492H401.871V61.8049Z" fill="#BADE5B"/>
<path d="M401.872 60.5422H395.927V61.1127H401.872V60.5422Z" fill="#BADE5B"/>
<path d="M401.871 60.7705H392.129V61.4575H401.871V60.7705Z" fill="#BADE5B"/>
<path d="M394.919 59.7361H392.772V60.4231H394.919V59.7361Z" fill="#BADE5B"/>
<path d="M401.099 59.5081H399.756V60.0785H401.099V59.5081Z" fill="#BADE5B"/>
<path d="M394.919 59.5081H393.576V60.0785H394.919V59.5081Z" fill="#BADE5B"/>
<path d="M401.098 59.7361H398.951V60.4231H401.098V59.7361Z" fill="#BADE5B"/>
<path d="M394.919 58.6985H392.772V59.3855H394.919V58.6985Z" fill="#BADE5B"/>
<path d="M401.099 58.4736H399.756V59.0441H401.099V58.4736Z" fill="#BADE5B"/>
<path d="M394.919 58.4736H393.576V59.0441H394.919V58.4736Z" fill="#BADE5B"/>
<path d="M401.098 58.6985H398.951V59.3855H401.098V58.6985Z" fill="#BADE5B"/>
<path d="M394.919 57.6643H392.772V58.3513H394.919V57.6643Z" fill="#BADE5B"/>
<path d="M401.099 57.4392H399.756V58.0097H401.099V57.4392Z" fill="#BADE5B"/>
<path d="M394.919 57.4392H393.576V58.0097H394.919V57.4392Z" fill="#BADE5B"/>
<path d="M401.098 57.6643H398.951V58.3513H401.098V57.6643Z" fill="#BADE5B"/>
<path d="M395.342 56.6299H393.195V57.3169H395.342V56.6299Z" fill="#BADE5B"/>
<path d="M400.718 56.4016H399.375V56.9721H400.718V56.4016Z" fill="#BADE5B"/>
<path d="M395.341 56.4016H393.998V56.9721H395.341V56.4016Z" fill="#BADE5B"/>
<path d="M400.719 56.6299H398.572V57.3169H400.719V56.6299Z" fill="#BADE5B"/>
<path d="M399.919 55.3674H395.87V55.9379H399.919V55.3674Z" fill="#BADE5B"/>
<path d="M399.92 55.5955H393.998V56.2825H399.92V55.5955Z" fill="#BADE5B"/>
<path d="M399.062 54.333H396.096V54.9035H399.062V54.333Z" fill="#BADE5B"/>
<path d="M399.061 54.561H394.691V55.2481H399.061V54.561Z" fill="#BADE5B"/>
<g opacity="0.5">
<path fill-rule="evenodd" clip-rule="evenodd" d="M432.167 58C432.992 58 433.667 57.325 433.667 56.5C433.667 55.675 432.992 55 432.167 55C431.342 55 430.667 55.675 430.667 56.5C430.667 57.325 431.342 58 432.167 58ZM432.167 59.5C431.342 59.5 430.667 60.175 430.667 61C430.667 61.825 431.342 62.5 432.167 62.5C432.992 62.5 433.667 61.825 433.667 61C433.667 60.175 432.992 59.5 432.167 59.5ZM432.167 64C431.342 64 430.667 64.675 430.667 65.5C430.667 66.325 431.342 67 432.167 67C432.992 67 433.667 66.325 433.667 65.5C433.667 64.675 432.992 64 432.167 64Z" fill="#5F6368"/>
</g>
</g>
</g>
</g>
<defs>
<filter id="filter0_d_13124_165973" x="-4" y="0" width="460" height="50" filterUnits="userSpaceOnUse" color-interpolation-filters="sRGB">
<feFlood flood-opacity="0" result="BackgroundImageFix"/>
<feColorMatrix in="SourceAlpha" type="matrix" values="0 0 0 0 0 0 0 0 0 0 0 0 0 0 0 0 0 0 127 0" result="hardAlpha"/>
<feOffset dy="4"/>
<feGaussianBlur stdDeviation="2"/>
<feColorMatrix type="matrix" values="0 0 0 0 0 0 0 0 0 0 0 0 0 0 0 0 0 0 0.25 0"/>
<feBlend mode="normal" in2="BackgroundImageFix" result="effect1_dropShadow_13124_165973"/>
<feBlend mode="normal" in="SourceGraphic" in2="effect1_dropShadow_13124_165973" result="shape"/>
</filter>
<clipPath id="clip0_13124_165973">
<rect width="452" height="80" rx="8" fill="white"/>
</clipPath>
<clipPath id="clip1_13124_165973">
<rect width="452" height="42" fill="white"/>
</clipPath>
<clipPath id="clip2_13124_165973">
<rect width="452" height="38" fill="white" transform="translate(0 42)"/>
</clipPath>
<clipPath id="clip3_13124_165973">
<rect width="109" height="16" fill="white" transform="translate(12 53)"/>
</clipPath>
<clipPath id="clip4_13124_165973">
<rect width="176" height="28" fill="white" transform="translate(164 47)"/>
</clipPath>
<clipPath id="clip5_13124_165973">
<rect width="57" height="28" fill="white" transform="translate(383 47)"/>
</clipPath>
</defs>
</svg>
